<svg width="190" height="157" viewBox="0 0 190 157" fill="none" xmlns="http://www.w3.org/2000/svg">
<path fill-rule="evenodd" clip-rule="evenodd" d="M103.344 121.855C88.3107 109.727 79.0598 92.3699 75.097 80.051L80.8088 78.2136C84.5127 89.728 93.2118 105.971 107.112 117.185C119.468 127.153 135.993 133.22 157.183 128.352L139.962 119.741C138.48 119 137.879 117.198 138.62 115.716C139.361 114.234 141.163 113.633 142.645 114.374L166.795 126.449C168.276 127.19 168.877 128.992 168.136 130.474L156.061 154.623C155.32 156.105 153.518 156.706 152.037 155.965C150.555 155.224 149.954 153.422 150.695 151.94L159.705 133.919C136.029 139.736 117.247 133.071 103.344 121.855Z" fill="#23BDCB"/>
<path d="M9.83033 90.2539L1.28597 67.2921L20.9675 59.9684L22.1881 63.2487L25.4684 62.028L29.1303 71.8688L22.5697 74.3101L23.7904 77.5903L27.0706 76.3697L28.2912 79.6499L31.5715 78.4293L32.7921 81.7096L22.9513 85.3714L21.7307 82.0912L18.4505 83.3118L17.2298 80.0316L13.9496 81.2522L16.3908 87.8127L9.83033 90.2539ZM12.729 77.9719L19.2895 75.5307L18.0689 72.2504L21.3491 71.0298L18.9079 64.4693L9.0671 68.1312L12.729 77.9719Z" fill="#DF0EDB"/>
<path d="M36.0724 80.489L27.528 57.5272L50.4898 48.9828L51.7104 52.2631L35.3091 58.3662L37.7504 64.9267L50.8714 60.0442L52.092 63.3244L38.971 68.2069L41.4123 74.7675L57.8135 68.6643L59.0342 71.9446L36.0724 80.489Z" fill="#DF0EDB"/>
<path d="M68.8749 68.2827L67.6543 65.0025L64.3741 66.2231L63.1534 62.9428L59.8732 64.1635L56.2113 54.3227L59.4916 53.1021L58.2709 49.8218L61.5512 48.6012L60.3306 45.3209L73.4516 40.4384L74.6722 43.7187L77.9525 42.4981L79.1731 45.7783L72.6126 48.2196L71.392 44.9393L64.8315 47.3806L66.0521 50.6608L62.7718 51.8814L66.4337 61.7222L69.7139 60.5016L70.9346 63.7818L77.4951 61.3406L76.2745 58.0603L82.835 55.6191L84.0556 58.8994L80.7753 60.12L81.996 63.4002L68.8749 68.2827Z" fill="#DF0EDB"/>
<path d="M88.5565 60.959L80.0121 37.9972L102.974 29.4528L104.195 32.7331L87.7932 38.8362L90.2345 45.3967L103.356 40.5142L104.576 43.7945L91.4551 48.677L93.8964 55.2375L110.298 49.1344L111.518 52.4146L88.5565 60.959Z" fill="#DF0EDB"/>
<path d="M114.799 51.194L106.254 28.2322L112.815 25.791L114.035 29.0712L117.316 27.8506L118.536 31.1309L121.816 29.9102L123.037 33.1905L126.317 31.9699L122.655 22.1291L129.216 19.6879L137.76 42.6496L131.2 45.0909L128.759 38.5304L125.478 39.751L124.258 36.4707L120.977 37.6914L119.757 34.4111L116.477 35.6317L121.359 48.7528L114.799 51.194Z" fill="#DF0EDB"/>
<path d="M150.881 37.7672L143.558 18.0856L136.997 20.5269L135.776 17.2466L155.458 9.92287L156.679 13.2031L150.118 15.6444L157.442 35.3259L150.881 37.7672Z" fill="#DF0EDB"/>
<path d="M170.563 30.4434L169.342 27.1632L166.062 28.3838L164.841 25.1035L171.402 22.6623L172.622 25.9425L182.463 22.2807L180.022 15.7202L166.901 20.6026L165.68 17.3224L162.4 18.543L159.959 11.9825L163.239 10.7619L162.019 7.48162L178.42 1.37851L179.64 4.65876L182.921 3.43814L184.141 6.71839L177.581 9.15964L176.36 5.87938L166.519 9.54125L168.961 16.1018L182.082 11.2193L183.302 14.4995L186.583 13.2789L189.024 19.8394L185.744 21.06L186.964 24.3403L170.563 30.4434Z" fill="#DF0EDB"/>
<path d="M8.54436 89.6655L0 66.7037L19.6815 59.3799L20.9022 62.6602L24.1824 61.4396L27.8443 71.2803L21.2838 73.7216L22.5044 77.0018L25.7847 75.7812L27.0053 79.0615L30.2855 77.8409L31.5062 81.1211L21.6654 84.783L20.4448 81.5027L17.1645 82.7234L15.9439 79.4431L12.6636 80.6637L15.1049 87.2242L8.54436 89.6655ZM11.443 77.3835L18.0035 74.9422L16.7829 71.662L20.0631 70.4413L17.6219 63.8808L7.78113 67.5427L11.443 77.3835Z" fill="white"/>
<path d="M34.7864 79.9005L26.242 56.9387L49.2038 48.3943L50.4245 51.6746L34.0232 57.7777L36.4644 64.3382L49.5855 59.4557L50.8061 62.736L37.6851 67.6185L40.1263 74.179L56.5276 68.0759L57.7482 71.3561L34.7864 79.9005Z" fill="white"/>
<path d="M67.589 67.6943L66.3683 64.414L63.0881 65.6346L61.8675 62.3544L58.5872 63.575L54.9253 53.7342L58.2056 52.5136L56.985 49.2333L60.2652 48.0127L59.0446 44.7325L72.1656 39.85L73.3863 43.1302L76.6665 41.9096L77.8871 45.1899L71.3266 47.6311L70.106 44.3509L63.5455 46.7921L64.7661 50.0724L61.4859 51.293L65.1477 61.1337L68.428 59.9131L69.6486 63.1934L76.2091 60.7521L74.9885 57.4719L81.549 55.0306L82.7696 58.3109L79.4894 59.5315L80.71 62.8118L67.589 67.6943Z" fill="white"/>
<path d="M87.2705 60.3705L78.7261 37.4087L101.688 28.8644L102.909 32.1446L86.5073 38.2477L88.9485 44.8083L102.07 39.9258L103.29 43.206L90.1691 48.0885L92.6104 54.649L109.012 48.5459L110.232 51.8262L87.2705 60.3705Z" fill="white"/>
<path d="M113.513 50.6055L104.968 27.6437L111.529 25.2025L112.749 28.4828L116.03 27.2621L117.25 30.5424L120.53 29.3218L121.751 32.602L125.031 31.3814L121.369 21.5406L127.93 19.0994L136.474 42.0612L129.914 44.5024L127.473 37.9419L124.192 39.1625L122.972 35.8823L119.691 37.1029L118.471 33.8226L115.191 35.0433L120.073 48.1643L113.513 50.6055Z" fill="white"/>
<path d="M149.595 37.1787L142.272 17.4971L135.711 19.9384L134.49 16.6581L154.172 9.3344L155.393 12.6147L148.832 15.0559L156.156 34.7374L149.595 37.1787Z" fill="white"/>
<path d="M169.277 29.8549L168.056 26.5747L164.776 27.7953L163.555 24.5151L170.116 22.0738L171.337 25.3541L181.177 21.6922L178.736 15.1317L165.615 20.0142L164.394 16.7339L161.114 17.9545L158.673 11.394L161.953 10.1734L160.733 6.89315L177.134 0.790039L178.354 4.07029L181.635 2.84967L182.855 6.12993L176.295 8.57117L175.074 5.29092L165.233 8.95279L167.675 15.5133L180.796 10.6308L182.016 13.9111L185.297 12.6904L187.738 19.251L184.458 20.4716L185.678 23.7518L169.277 29.8549Z" fill="white"/>
</svg>
